<svg xmlns="http://www.w3.org/2000/svg" width="301" height="125.634" viewBox="0 0 301 125.634"><defs><style>.a{fill:#fff;}</style></defs><g transform="translate(-793 -137.366)"><g transform="translate(793 137.366)"><path class="a" d="M221.856,0a46.589,46.589,0,1,0,46.621,46.556A46.568,46.568,0,0,0,221.856,0Zm0,76.753a30.132,30.132,0,1,1,30.132-30.132A30.163,30.163,0,0,1,221.856,76.753Z" transform="translate(-61.948)"/><path class="a" d="M376.047,74.4V26.423h51.535V8.9H358.2V91.926h69.382V74.4Z" transform="translate(-126.582 -3.145)"/><path class="a" d="M0,4.4,9.117,20.113h64.4l-32.2,55.8,9.958,17.329L102.618,4.4Z" transform="translate(0 -1.555)"/></g><path class="a" d="M4.887,5.938l5.578,13.922L16.043,5.938h2.918V23h-2.25V16.355l.211-7.172L11.32,23H9.6L4.008,9.219l.223,7.137V23H1.98V5.938Zm54.019,9.176H51.512V21.16H60.1V23H49.262V5.938H59.984v1.84H51.512v5.5h7.395Zm42.348-7.336H95.769V23H93.531V7.777H88.058V5.938h13.2Zm38.5,7.336h-7.395V21.16h8.59V23h-10.84V5.938h10.723v1.84h-8.473v5.5h7.395Zm36.582.984h-4.008V23H170.07V5.938h5.648a6.686,6.686,0,0,1,4.436,1.313,4.722,4.722,0,0,1,1.553,3.82,4.593,4.593,0,0,1-.861,2.777,5.142,5.142,0,0,1-2.4,1.77l4.008,7.242V23h-2.414Zm-4.008-1.84h3.457a3.9,3.9,0,0,0,2.666-.869,2.938,2.938,0,0,0,.99-2.325,3.094,3.094,0,0,0-.943-2.43,4,4,0,0,0-2.725-.857h-3.445Z" transform="translate(910 240)"/></g></svg>