<svg xmlns="http://www.w3.org/2000/svg" xmlns:xlink="http://www.w3.org/1999/xlink" width="113.028" height="47.076" viewBox="0 0 113.028 47.076"><defs><style>.a{fill:none;}.b{clip-path:url(#a);}.c{fill:#fff;}</style><clipPath id="a"><rect class="a" width="113.028" height="47.076"/></clipPath></defs><g class="b"><path class="c" d="M107.158,0A16.249,16.249,0,1,0,123.41,16.246,16.263,16.263,0,0,0,107.158,0m0,25.022a8.77,8.77,0,1,1,8.765-8.775,8.778,8.778,0,0,1-8.765,8.775" transform="translate(-51.093 0)"/><path class="c" d="M208.56,12.105V4.279H183.827V33.457H208.56V25.638H191.753V12.105Z" transform="translate(-103.312 -2.405)"/><path class="c" d="M0,2.111,4.175,9.355H23.97L14.075,26.5l4.473,7.76L37.1,2.111Z" transform="translate(0 -1.187)"/><path class="c" d="M23.97,95.379a1.389,1.389,0,0,1-.837,1.313A1.439,1.439,0,0,1,24.3,98.123c0,1.054-.862,1.615-2.167,1.615h-2.71V93.881h2.627c1.18,0,1.924.578,1.924,1.5m-1.028.167c0-.477-.368-.753-1.03-.753H20.431V96.35h1.406c.661,0,1.105-.259,1.105-.8m.326,2.468c0-.5-.393-.795-1.2-.795H20.431v1.606h1.707c.7,0,1.129-.276,1.129-.812" transform="translate(-10.914 -52.762)"/><rect class="c" width="1.029" height="5.856" transform="translate(19.452 41.119)"/><path class="c" d="M63.866,99.709a3.029,3.029,0,1,1,3.07-3.037,2.975,2.975,0,0,1-3.07,3.037m0-5.112a1.981,1.981,0,0,0-1.974,2.075,2.009,2.009,0,0,0,1.991,2.092,1.981,1.981,0,0,0,1.974-2.075A2.009,2.009,0,0,0,63.866,94.6" transform="translate(-34.177 -52.633)"/><path class="c" d="M91.586,98.3h-.034L89.72,95.555v4.183H88.708V93.882h1.1l1.782,2.769,1.782-2.769h1.1v5.856H93.435v-4.2Z" transform="translate(-49.855 -52.762)"/><path class="c" d="M120.7,94.8h-3.313v1.523h2.936v.92h-2.936v1.572h3.355v.921h-4.384V93.881H120.7Z" transform="translate(-65.393 -52.762)"/><path class="c" d="M142.163,99.738h-1.037v-4.9h-1.857v-.954h4.751v.954h-1.857Z" transform="translate(-78.27 -52.762)"/><path class="c" d="M167.427,99.737,165.987,97.7H164.7v2.041H163.67V93.881h2.61c1.347,0,2.175.711,2.175,1.858a1.753,1.753,0,0,1-1.4,1.782l1.581,2.217Zm-1.23-4.919h-1.5v1.966h1.506c.735,0,1.2-.385,1.2-.987,0-.644-.452-.979-1.214-.979" transform="translate(-91.984 -52.762)"/><rect class="c" width="1.03" height="5.856" transform="translate(82.641 41.119)"/><path class="c" d="M208.062,99.709a3.029,3.029,0,0,1,.041-6.057,3.053,3.053,0,0,1,2.293.912l-.662.762A2.328,2.328,0,0,0,208.1,94.6a2.089,2.089,0,0,0,0,4.167A2.3,2.3,0,0,0,209.777,98l.661.669a3.021,3.021,0,0,1-2.376,1.038" transform="translate(-115.258 -52.633)"/><path class="c" d="M232.6,96.233c1.238.3,1.883.745,1.883,1.723,0,1.1-.862,1.757-2.092,1.757a3.609,3.609,0,0,1-2.443-.937l.619-.736a2.7,2.7,0,0,0,1.849.761c.636,0,1.037-.293,1.037-.745,0-.427-.234-.653-1.321-.9-1.247-.3-1.949-.669-1.949-1.757a1.788,1.788,0,0,1,2-1.707,3.247,3.247,0,0,1,2.125.736l-.552.778a2.663,2.663,0,0,0-1.59-.6c-.6,0-.954.31-.954.7,0,.46.268.661,1.389.929" transform="translate(-129.23 -52.655)"/><path class="c" d="M250.99,10.327l-.626-.887h-.56v.887h-.447V7.782h1.134c.586,0,.945.309.945.808a.762.762,0,0,1-.607.774l.687.963Zm-.535-2.138H249.8v.855h.655c.32,0,.523-.167.523-.429,0-.28-.2-.425-.527-.425" transform="translate(-140.141 -4.374)"/><path class="c" d="M247.892,9.982a2.852,2.852,0,1,1,2.851-2.851,2.854,2.854,0,0,1-2.851,2.851m0-5.36A2.508,2.508,0,1,0,250.4,7.131a2.512,2.512,0,0,0-2.508-2.508" transform="translate(-137.715 -2.405)"/></g></svg>